<svg width="290" height="74" viewBox="0 0 290 74" fill="none" xmlns="http://www.w3.org/2000/svg">
<g clip-path="url(#clip0_5_387)">
<path d="M114 37C114 40.3 113.4 43.1 112.1 45.4C110.9 47.7 109.2 49.5 107 50.7C104.9 51.9 102.5 52.5 99.8 52.5C97.1 52.5 94.7 51.9 92.6 50.7C90.5 49.5 88.8 47.7 87.5 45.4C86.2 43.1 85.6 40.3 85.6 37C85.6 33.7 86.2 30.9 87.5 28.6C88.7 26.3 90.4 24.5 92.6 23.3C94.7 22.1 97.1 21.5 99.8 21.5C102.5 21.5 104.9 22.1 107 23.3C109.1 24.5 110.8 26.3 112.1 28.6C113.4 30.9 114 33.7 114 37ZM107.6 37C107.6 34.9 107.3 33.1 106.7 31.6C106.1 30.1 105.2 29 104 28.3C102.8 27.6 101.5 27.2 100 27.2C98.5 27.2 97.1 27.6 96 28.3C94.9 29 94 30.2 93.3 31.6C92.6 33 92.4 34.9 92.4 37C92.4 39.1 92.7 40.9 93.3 42.4C93.9 43.9 94.8 45 96 45.7C97.2 46.4 98.5 46.8 100 46.8C101.5 46.8 102.9 46.4 104 45.7C105.1 45 106 43.8 106.7 42.4C107.2 40.9 107.6 39.1 107.6 37Z" fill="#052340"/>
<path d="M145.3 32.5H138.9C138.8 31.7 138.5 30.9 138.2 30.3C137.8 29.6 137.4 29.1 136.8 28.6C136.2 28.1 135.6 27.8 134.8 27.5C134.1 27.3 133.3 27.1 132.4 27.1C130.8 27.1 129.5 27.5 128.3 28.3C127.1 29.1 126.2 30.2 125.6 31.7C125 33.2 124.6 34.9 124.6 37C124.6 39.1 124.9 41 125.6 42.4C126.2 43.9 127.1 45 128.3 45.7C129.5 46.4 130.8 46.8 132.3 46.8C133.2 46.8 133.9 46.7 134.7 46.5C135.4 46.3 136.1 45.9 136.7 45.5C137.3 45.1 137.7 44.5 138.1 43.9C138.5 43.3 138.7 42.6 138.9 41.8H145.3C145.1 43.2 144.7 44.5 144.1 45.8C143.4 47.1 142.5 48.2 141.4 49.2C140.3 50.2 139 51 137.4 51.6C135.8 52.2 134.1 52.5 132.2 52.5C129.5 52.5 127.1 51.9 125 50.7C122.9 49.5 121.2 47.7 120 45.4C118.8 43.1 118.2 40.3 118.2 37C118.2 33.7 118.8 30.9 120.1 28.6C121.3 26.3 123 24.5 125.1 23.3C127.2 22.1 129.6 21.5 132.3 21.5C134 21.5 135.7 21.7 137.2 22.2C138.7 22.7 140 23.4 141.2 24.3C142.4 25.2 143.3 26.4 144 27.7C144.7 29.2 145.1 30.7 145.3 32.5Z" fill="#052340"/>
<path d="M149.9 52.1V21.9H170.2V27.2H156.3V34.4H169.2V39.7H156.3V46.9H170.3V52.2H149.9V52.1Z" fill="#052340"/>
<path d="M180.5 52.1H173.7L184.1 21.9H192.3L202.7 52.1H195.9L188.3 28.8H188.1L180.5 52.1ZM180.1 40.2H196.2V45.2H180.1V40.2Z" fill="#052340"/>
<path d="M231.5 21.9V52.1H226L212.9 33.1H212.7V52.1H206.3V21.9H211.9L224.9 40.9H225.2V21.9H231.5Z" fill="#052340"/>
<path d="M255.4 21.9H261.8V41.5C261.8 43.7 261.3 45.6 260.2 47.3C259.2 48.9 257.7 50.2 255.8 51.2C253.9 52.1 251.7 52.6 249.2 52.6C246.7 52.6 244.5 52.1 242.6 51.2C240.7 50.3 239.3 49 238.2 47.3C237.2 45.7 236.6 43.7 236.6 41.5V21.9H243V40.9C243 42 243.3 43.1 243.8 44C244.3 44.9 245 45.6 245.9 46.1C246.8 46.6 247.9 46.9 249.1 46.9C250.3 46.9 251.4 46.6 252.3 46.1C253.2 45.6 253.9 44.9 254.4 44C254.9 43.1 255.2 42.1 255.2 40.9V21.9H255.4Z" fill="#052340"/>
<path d="M283.4 30.6C283.3 29.4 282.8 28.5 281.9 27.8C281 27.1 279.8 26.8 278.3 26.8C277.3 26.8 276.4 26.9 275.7 27.2C275 27.5 274.4 27.9 274.1 28.4C273.7 28.9 273.5 29.5 273.5 30.1C273.5 30.6 273.6 31.1 273.8 31.5C274.1 31.9 274.4 32.2 274.8 32.5C275.2 32.8 275.8 33 276.3 33.3C276.9 33.5 277.5 33.7 278.2 33.8L280.9 34.4C282.2 34.7 283.4 35.1 284.5 35.6C285.6 36.1 286.6 36.7 287.4 37.4C288.2 38.1 288.8 39 289.3 39.9C289.7 40.9 290 42 290 43.2C290 45 289.5 46.6 288.6 48C287.7 49.4 286.3 50.4 284.6 51.1C282.9 51.8 280.8 52.2 278.3 52.2C275.9 52.2 273.7 51.8 271.9 51.1C270.1 50.4 268.7 49.2 267.7 47.8C266.7 46.3 266.2 44.5 266.1 42.3H272.3C272.4 43.3 272.7 44.2 273.2 44.8C273.7 45.5 274.4 46 275.3 46.3C276.2 46.6 277.2 46.8 278.3 46.8C279.4 46.8 280.3 46.6 281.1 46.3C281.9 46 282.5 45.5 283 45C283.4 44.4 283.7 43.8 283.7 43.1C283.7 42.4 283.5 41.9 283.1 41.4C282.7 40.9 282.1 40.5 281.4 40.2C280.7 39.9 279.7 39.6 278.6 39.3L275.3 38.5C272.8 37.9 270.8 36.9 269.3 35.6C267.8 34.3 267.1 32.5 267.1 30.3C267.1 28.5 267.6 26.9 268.6 25.5C269.6 24.1 270.9 23.1 272.7 22.3C274.5 21.5 276.4 21.2 278.6 21.2C280.8 21.2 282.8 21.6 284.5 22.3C286.2 23.1 287.5 24.1 288.4 25.5C289.3 26.9 289.8 28.4 289.8 30.2H283.4V30.6Z" fill="#052340"/>
<path d="M34.4 71.4C53.3986 71.4 68.8 55.9986 68.8 37C68.8 18.0014 53.3986 2.6 34.4 2.6C15.4014 2.6 0 18.0014 0 37C0 55.9986 15.4014 71.4 34.4 71.4Z" fill="#052340"/>
<path d="M57.1 25.6C55.1 24.2 53.1 22.8 51 21.3L50.9 21.2C50.7 21 50.4 20.9 50.1 20.7C44.6 19.4 39.1 18 33.7 16.7C28.8 15.5 24 14.3 19.1 13.1C19 13.1 18.9 13 18.7 13C18.3 12.9 17.8 12.7 17.2 12.8C17 12.8 16.9 12.9 16.8 13L16.7 13.1C16.5 13.3 16.4 13.6 16.3 13.7V13.8V14.3V14.4C19.4 23 22.5 31.8 25.6 40.3C27.9 46.8 30.4 53.6 32.8 60.2C32.9 60.7 33.4 60.9 33.9 61H34C34.5 61 34.9 60.8 35.1 60.4L44 47.4C46.2 44.2 48.4 41 50.5 37.9C51.4 36.6 52.3 35.3 53.2 34C54.7 31.9 56.2 29.6 57.7 27.5L57.8 27.4V27.3C57.7 26.8 57.7 26 57.1 25.6ZM46.6 30.4C44.5 31.5 42.4 32.6 40.2 33.7C41.5 32.4 42.7 31 44 29.7C45.6 28 47.2 26.3 48.8 24.5C48.9 24.3 49.1 24.2 49.3 24C49.4 23.9 49.6 23.8 49.7 23.6C50.5 24.2 51.4 24.8 52.2 25.3C52.8 25.7 53.4 26.1 54 26.6C51.5 27.8 49 29.1 46.6 30.4ZM41.2 29.8C39.6 31.5 37.9 33.3 36.3 35.1C33.1 31.2 29.8 27.2 26.6 23.4C25.2 21.7 23.7 19.9 22.3 18.2C22 17.8 21.7 17.4 21.3 17C21.1 16.7 20.9 16.5 20.7 16.2C22 16.5 23.3 16.9 24.6 17.2C25.7 17.5 26.9 17.8 28.1 18C34.6 19.6 41.2 21.2 47.8 22.8C45.5 25.2 43.3 27.5 41.2 29.8ZM35.5 51.8C35.6 50.6 35.8 49.4 35.9 48.2C36 47.2 36.1 46.3 36.2 45.3C36.4 43.8 36.5 42.2 36.7 40.7V40.4C36.8 39.4 36.9 38.4 37 37.4C37.1 37.3 37.3 37.3 37.4 37.2C37.6 37.1 37.7 37.1 37.9 37C40.5 35.6 43.1 34.3 45.7 32.9C48.3 31.5 51 30.1 53.6 28.8C51.2 32.3 48.8 35.8 46.4 39.3C44.4 42.2 42.3 45.3 40.2 48.3C39.4 49.5 38.5 50.7 37.7 51.9C36.8 53.2 35.9 54.6 35 55.9C35.2 54.5 35.4 53.2 35.5 51.8ZM19.8 18.9C19.7 18.5 19.5 18.1 19.4 17.7C22.4 21.4 25.5 25.1 28.5 28.7C30 30.6 31.6 32.4 33.1 34.3C33.4 34.6 33.7 35 34 35.4C34.4 35.9 34.8 36.3 35.2 36.8C35.1 38 35 39.1 34.8 40.3C34.7 41.1 34.6 41.9 34.6 42.7C34.6 43.2 34.5 43.7 34.4 44.2C34.3 44.9 34.1 46.4 34.1 46.4V46.5C33.9 48.8 33.6 51.1 33.4 53.3C33.3 54.2 33.2 55.2 33.1 56.1C33 55.9 33 55.8 32.9 55.6C32.7 55.1 32.6 54.7 32.4 54.2L31.2 50.8C27.4 40.2 23.6 29.6 19.8 18.9Z" fill="white"/>
</g>
<defs>
<clipPath id="clip0_5_387">
<rect width="289.9" height="74" fill="white"/>
</clipPath>
</defs>
</svg>
