<svg width="35" height="31" viewBox="0 0 35 31" fill="none" xmlns="http://www.w3.org/2000/svg">
<path d="M20.3464 25.5696L21.6536 30.9543L23.3529 30.5401L22.0893 25.2644C26.0109 24.4578 31.5882 22.256 35.3573 16.3917L35.6623 15.9121L35.3573 15.4325C29.5839 6.42899 19.7799 6.03659 17.4706 6.08019L16.1198 0.630127L14.4205 1.04433L15.6623 6.23279C12.6122 6.5598 7.12199 7.78061 2.72112 12.2061C1.80609 13.1435 0.912838 14.2117 0.128525 15.4543H0.150306L0.1721 15.5197C0.215673 15.6723 0.346392 16.1301 0.716763 16.7405C1.41393 17.7869 2.17645 18.7243 2.96077 19.5309L2.06753 15.8031C2.45968 15.2581 2.85184 14.7567 3.26578 14.2771L4.96513 21.3404C5.6623 21.8854 6.38125 22.3868 7.1002 22.801L4.68191 12.8165C5.13942 12.4023 5.59694 12.0317 6.05445 11.6829L8.97383 23.782C9.64922 24.0872 10.3028 24.3488 10.9564 24.5668L7.60129 10.6582C8.14595 10.3312 8.69061 10.0478 9.23528 9.80803L12.939 25.1336C13.5926 25.2862 14.2244 25.417 14.8126 25.5042L13.6579 20.6864C14.2462 21.166 14.9215 21.5366 15.6623 21.7546L16.6209 25.7222C17.4052 25.7876 18.037 25.7876 18.4292 25.7876L17.5359 22.038C18.1895 22.038 18.8431 21.929 19.4313 21.711L19.9542 23.8692L20.3464 25.5696ZM11.8932 13.4269L10.8693 9.13223C11.4357 8.93602 11.9586 8.76162 12.4815 8.63082L13.2004 11.5739C12.6558 12.0971 12.22 12.7293 11.8932 13.4269ZM14.7255 10.462L14.1808 8.21662C14.8998 8.08581 15.5316 7.99861 16.098 7.95501L16.5555 9.87343C15.9019 9.98244 15.2919 10.1786 14.7255 10.462ZM21.4793 22.8664L21 20.8826C22.5468 19.7708 23.549 17.9613 23.549 15.9121C23.549 12.8601 21.2832 10.3094 18.342 9.87343L17.8627 7.88961C18.1895 7.91141 18.5163 7.93321 18.8431 7.99861C23.2004 8.76162 26.1198 12.9473 25.3573 17.3073C24.9433 19.6617 23.5054 21.6892 21.4793 22.8664ZM24.3551 22.8228C25.7494 21.4276 26.7298 19.6181 27.0784 17.6125C27.6449 14.3861 26.5555 11.2468 24.4205 9.06682C27.4924 10.135 30.9346 12.1407 33.5272 15.9339C30.9128 19.7489 27.427 21.7764 24.3551 22.8228Z" fill="white"/>
</svg>
