<svg width="80" height="80" viewBox="0 0 80 80" fill="none" xmlns="http://www.w3.org/2000/svg">
<g clip-path="url(#clip0_6_326)">
<path d="M62.5637 19.4936C62.5631 19.4922 62.5626 19.4909 62.562 19.4895C62.5385 19.434 62.5109 19.3797 62.4789 19.3264C62.4639 19.3008 62.4487 19.2753 62.432 19.2508C62.419 19.232 62.4051 19.2137 62.3909 19.1953C62.3548 19.1478 62.3167 19.1019 62.274 19.0592L43.6079 0.393111C43.5653 0.350456 43.5193 0.312332 43.4718 0.27624C43.4536 0.262021 43.4351 0.248272 43.4164 0.235147C43.3918 0.218429 43.3662 0.203273 43.3407 0.188274C43.2875 0.156244 43.2331 0.128588 43.1776 0.105152C43.1762 0.104527 43.175 0.104058 43.1736 0.103433C43.0064 0.0335916 42.8322 0.000467687 42.659 0.00249887H1.33324C0.596855 0.00249887 0 0.599354 0 1.33574V78.6664C0 79.4028 0.596855 79.9997 1.33324 79.9997H61.3312C62.0676 79.9997 62.6645 79.4028 62.6645 78.6664V20.0081C62.6667 19.835 62.6335 19.6608 62.5637 19.4936ZM58.1124 18.6688H43.9985V4.55485L58.1124 18.6688ZM2.66647 77.3334V2.66929H41.3319V20.002C41.3319 20.7384 41.9288 21.3352 42.6651 21.3352H59.9978V77.3334H2.66647Z" fill="#052340"/>
<path d="M49.3316 54.6676H27.9991C27.2627 54.6676 26.6658 55.2644 26.6658 56.0008C26.6658 56.7372 27.2627 57.334 27.9991 57.334H49.3316C50.068 57.334 50.6649 56.7372 50.6649 56.0008C50.6649 55.2644 50.068 54.6676 49.3316 54.6676Z" fill="#052340"/>
<path d="M26.6657 50.6677C26.6657 51.4041 27.2625 52.0009 27.9989 52.0009H42.6651C43.4015 52.0009 43.9984 51.4041 43.9984 50.6677C43.9984 49.9313 43.4015 49.3344 42.6651 49.3344H27.9989C27.2627 49.3343 26.6657 49.9313 26.6657 50.6677Z" fill="#052340"/>
<path d="M27.9991 66.6671H42.6653C43.4017 66.6671 43.9985 66.0703 43.9985 65.3339C43.9985 64.5975 43.4017 64.0007 42.6653 64.0007H27.9991C27.2627 64.0007 26.6658 64.5975 26.6658 65.3339C26.6658 66.0703 27.2627 66.6671 27.9991 66.6671Z" fill="#052340"/>
<path d="M20.8321 48.2933C20.2571 47.8333 19.4181 47.9265 18.9581 48.5015L14.5554 54.0048L12.9422 52.3916C12.4215 51.8709 11.5774 51.8709 11.0567 52.3916C10.536 52.9122 10.536 53.7564 11.0567 54.2771L13.7233 56.9437C14.2851 57.5056 15.2107 57.4544 15.7071 56.8339L21.0402 50.1674C21.5004 49.5923 21.4071 48.7532 20.8321 48.2933Z" fill="#052340"/>
<path d="M49.3316 69.3336H27.9991C27.2627 69.3336 26.6658 69.9306 26.6658 70.6669C26.6658 71.4032 27.2627 72.0001 27.9991 72.0001H49.3316C50.068 72.0001 50.6649 71.4031 50.6649 70.6669C50.6649 69.9306 50.068 69.3336 49.3316 69.3336Z" fill="#052340"/>
<path d="M20.8321 62.9595C20.2571 62.4995 19.4181 62.5928 18.9581 63.1677L14.5554 68.671L12.9422 67.0578C12.4215 66.5372 11.5774 66.5372 11.0567 67.0578C10.536 67.5785 10.536 68.4227 11.0567 68.9433L13.7233 71.61C14.2851 72.1718 15.2107 72.1206 15.7071 71.5001L21.0402 64.8336C21.5004 64.2585 21.4071 63.4195 20.8321 62.9595Z" fill="#052340"/>
<path d="M15.9995 41.3346C16.7359 41.3346 17.3327 40.7377 17.3327 40.0013V25.3351C17.3327 24.5987 16.7357 24.0019 15.9995 24.0019H10.6664C9.92999 24.0019 9.33313 24.5987 9.33313 25.3351V40.0013C9.33313 40.7377 9.92999 41.3346 10.6664 41.3346H15.9995ZM11.9996 26.6685H14.6662V38.6681H11.9996V26.6685Z" fill="#052340"/>
<path d="M27.9991 40.0013V16.0021C27.9991 15.2657 27.4021 14.6689 26.6658 14.6689H21.3326C20.5962 14.6689 19.9993 15.2657 19.9993 16.0021V40.0013C19.9993 40.7377 20.5962 41.3346 21.3326 41.3346H26.6657C27.4021 41.3346 27.9991 40.7377 27.9991 40.0013ZM25.3324 38.6681H22.6658V17.3354H25.3324V38.6681Z" fill="#052340"/>
<path d="M31.9989 41.3346H37.3321C38.0684 41.3346 38.6653 40.7377 38.6653 40.0013V21.3352C38.6653 20.5988 38.0684 20.002 37.3321 20.002H31.9989C31.2626 20.002 30.6657 20.5988 30.6657 21.3352V40.0013C30.6656 40.7377 31.2626 41.3346 31.9989 41.3346ZM33.3322 22.6686H35.9988V38.6681H33.3322V22.6686Z" fill="#052340"/>
</g>
<defs>
<clipPath id="clip0_6_326">
<rect width="80" height="80" fill="white"/>
</clipPath>
</defs>
</svg>
