<svg width="80" height="80" viewBox="0 0 80 80" fill="none" xmlns="http://www.w3.org/2000/svg">
<g clip-path="url(#clip0_6_488)">
<path d="M60.5623 71.004C60.5623 63.2405 56.1427 56.1992 49.3404 52.7203C53.7819 49.7144 56.7068 44.6304 56.7068 38.8755V37.5904H41.2851V22.1687H40C30.7881 22.1687 23.2932 29.6636 23.2932 38.8755C23.2932 44.6304 26.2182 49.7144 30.6596 52.7203C23.8574 56.1992 19.4378 63.2405 19.4378 71.004V77.4297H7.87149V74.8594H5.30121V77.4297H0.160645V80H74.6988V77.4297H60.5623V71.004ZM25.8635 38.8755C25.8635 31.5129 31.5194 25.4483 38.7149 24.7968V40.1606H54.0787C53.4272 47.3561 47.3626 53.012 40 53.012C32.2056 53.012 25.8635 46.6699 25.8635 38.8755ZM40 60.2577L35.5971 54.9745C37.0031 55.3587 38.4745 55.5823 40 55.5823C41.5255 55.5823 42.997 55.3587 44.4029 54.9745L40 60.2577ZM42.2914 63.5476L41.7761 64.5783H38.2239L37.7086 63.5476L40 61.2562L42.2914 63.5476ZM34.9815 77.4297H22.008V71.004C22.008 65.7182 24.3521 60.8128 28.196 57.4599L34.6962 66.56L35.7937 65.4625L36.115 66.1051L34.9815 77.4297ZM35.0227 62.5966L30.2458 55.9088C30.8524 55.5168 31.4911 55.1698 32.1478 54.8498L36.9761 60.6432L35.0227 62.5966ZM37.5647 77.4297L38.5928 67.1486H41.4072L42.4353 77.4297H37.5647ZM47.8509 54.8498C48.5089 55.1698 49.1476 55.5168 49.7529 55.9088L44.9761 62.5966L43.0227 60.6432L47.8509 54.8498ZM57.992 77.4297H45.0185L43.8863 66.1051L44.2076 65.4625L45.3051 66.56L51.8053 57.4599C55.6479 60.8128 57.992 65.7182 57.992 71.004V77.4297Z" fill="#052340"/>
<path d="M79.8394 77.4297H77.2691V80H79.8394V77.4297Z" fill="#052340"/>
<path d="M61.8474 33.7349C61.8474 24.523 54.3524 17.0281 45.1405 17.0281H43.8554V35.0201H61.8474V33.7349ZM46.4257 32.4498V19.6562C53.1984 20.2692 58.6063 25.6784 59.2193 32.4498H46.4257Z" fill="#052340"/>
<path d="M5.30122 4.17671V72.2892H7.8715V4.17671L10.9558 6.48996L12.498 4.43373L6.58636 0L0.674713 4.43373L2.21688 6.48996L5.30122 4.17671Z" fill="#052340"/>
<path d="M28.4337 5.46185V22.1687H31.004V5.46185L34.0883 7.7751L35.6305 5.71888L29.7189 1.28514L23.8072 5.71888L25.3494 7.7751L28.4337 5.46185Z" fill="#052340"/>
<path d="M51.5663 9.31727V15.743H54.1365V9.31727L57.2209 11.6305L58.763 9.5743L52.8514 5.14056L46.9398 9.5743L48.4819 11.6305L51.5663 9.31727Z" fill="#052340"/>
<path d="M11.2129 19.3414L14.2972 17.0281V64.5783H16.8675V17.0281L19.9518 19.3414L21.494 17.2851L15.5823 12.8514L9.67068 17.2851L11.2129 19.3414Z" fill="#052340"/>
<path d="M16.8675 72.2892H14.2972V74.8594H16.8675V72.2892Z" fill="#052340"/>
<path d="M16.8675 67.1486H14.2972V69.7189H16.8675V67.1486Z" fill="#052340"/>
<path d="M79.3253 4.43374L73.4137 0L67.502 4.43374L69.0442 6.48996L72.1285 4.17671V64.5783H74.6988V4.17671L77.7831 6.48996L79.3253 4.43374Z" fill="#052340"/>
<path d="M74.6988 72.2892H72.1285V74.8594H74.6988V72.2892Z" fill="#052340"/>
<path d="M74.6988 67.1486H72.1285V69.7189H74.6988V67.1486Z" fill="#052340"/>
<path d="M65.7028 45.3012L68.7872 47.6145L70.3293 45.5582L64.4177 41.1245L58.506 45.5582L60.0482 47.6145L63.1325 45.3012V62.008H65.7028V45.3012Z" fill="#052340"/>
<path d="M65.7028 64.5783H63.1325V67.1486H65.7028V64.5783Z" fill="#052340"/>
<path d="M65.7028 69.7189H63.1325V72.2892H65.7028V69.7189Z" fill="#052340"/>
</g>
<defs>
<clipPath id="clip0_6_488">
<rect width="80" height="80" fill="white"/>
</clipPath>
</defs>
</svg>
